<svg width="38" height="39" viewBox="0 0 38 39" fill="none" xmlns="http://www.w3.org/2000/svg">
<path d="M23.0175 0L28.715 7.98367L32.4722 6.70262L35.9014 16.7342H37.625V38.2342H0V16.7342H0.91375V16.7162L2.07475 16.727L23.0175 0ZM14.1488 16.7342H32.1156L30.2577 11.3L27.5307 12.1726L14.1488 16.7342ZM11.3574 13.898L25.1729 9.19125L22.2991 5.16L11.3574 13.898ZM7.16667 20.3175H3.58333V23.9008C4.53369 23.9008 5.44513 23.5233 6.11713 22.8513C6.78914 22.1793 7.16667 21.2679 7.16667 20.3175ZM25.0833 27.4842C25.0833 26.6607 24.9211 25.8452 24.606 25.0844C24.2909 24.3236 23.8289 23.6323 23.2466 23.05C22.6643 22.4677 21.9731 22.0058 21.2122 21.6907C20.4514 21.3755 19.636 21.2133 18.8125 21.2133C17.989 21.2133 17.1736 21.3755 16.4128 21.6907C15.6519 22.0058 14.9607 22.4677 14.3784 23.05C13.7961 23.6323 13.3341 24.3236 13.019 25.0844C12.7039 25.8452 12.5417 26.6607 12.5417 27.4842C12.5417 29.1473 13.2023 30.7423 14.3784 31.9183C15.5544 33.0943 17.1494 33.755 18.8125 33.755C20.4756 33.755 22.0706 33.0943 23.2466 31.9183C24.4227 30.7423 25.0833 29.1473 25.0833 27.4842ZM34.0417 34.6508V31.0675C33.0913 31.0675 32.1799 31.445 31.5079 32.117C30.8359 32.789 30.4583 33.7005 30.4583 34.6508H34.0417ZM30.4583 20.3175C30.4583 21.2679 30.8359 22.1793 31.5079 22.8513C32.1799 23.5233 33.0913 23.9008 34.0417 23.9008V20.3175H30.4583ZM3.58333 34.6508H7.16667C7.16667 33.7005 6.78914 32.789 6.11713 32.117C5.44513 31.445 4.53369 31.0675 3.58333 31.0675V34.6508Z" fill="white"/>
</svg>
