<svg width="38" height="38" viewBox="0 0 38 38" fill="none" xmlns="http://www.w3.org/2000/svg">
<path d="M11.4 32.3H14.25V19.475C15.0733 19.2217 15.7542 18.7707 16.2925 18.1222C16.8308 17.4737 17.1 16.6896 17.1 15.77V8.55C17.1 8.29667 17.005 8.075 16.815 7.885C16.625 7.695 16.4033 7.6 16.15 7.6C15.8967 7.6 15.675 7.695 15.485 7.885C15.295 8.075 15.2 8.29667 15.2 8.55V13.3H13.775V8.55C13.775 8.29667 13.68 8.075 13.49 7.885C13.3 7.695 13.0783 7.6 12.825 7.6C12.5717 7.6 12.35 7.695 12.16 7.885C11.97 8.075 11.875 8.29667 11.875 8.55V13.3H10.45V8.55C10.45 8.29667 10.355 8.075 10.165 7.885C9.975 7.695 9.75333 7.6 9.5 7.6C9.24667 7.6 9.025 7.695 8.835 7.885C8.645 8.075 8.55 8.29667 8.55 8.55V15.77C8.55 16.6883 8.81917 17.4724 9.3575 18.1222C9.89583 18.772 10.5767 19.2229 11.4 19.475V32.3ZM22.8 32.3H25.65V20.235C26.695 19.7283 27.5107 18.9208 28.0972 17.8125C28.6837 16.7042 28.9763 15.4058 28.975 13.9175C28.975 12.1125 28.5241 10.6083 27.6222 9.405C26.7203 8.20167 25.5879 7.6 24.225 7.6C22.8621 7.6 21.7303 8.20167 20.8297 9.405C19.9291 10.6083 19.4775 12.1125 19.475 13.9175C19.475 15.4058 19.7682 16.7042 20.3547 17.8125C20.9412 18.9208 21.7563 19.7283 22.8 20.235V32.3ZM3.8 38C2.755 38 1.86073 37.6282 1.1172 36.8847C0.373667 36.1412 0.00126667 35.2463 0 34.2V3.8C0 2.755 0.3724 1.86073 1.1172 1.1172C1.862 0.373667 2.75627 0.00126667 3.8 0H34.2C35.245 0 36.1399 0.3724 36.8847 1.1172C37.6295 1.862 38.0013 2.75627 38 3.8V34.2C38 35.245 37.6282 36.1399 36.8847 36.8847C36.1412 37.6295 35.2463 38.0013 34.2 38H3.8Z" fill="white"/>
</svg>
