<svg width="37" height="37" viewBox="0 0 37 37" fill="none" xmlns="http://www.w3.org/2000/svg">
<path fill-rule="evenodd" clip-rule="evenodd" d="M0 2.6986C0 1.98289 0.284317 1.29649 0.790403 0.790403C1.29649 0.284317 1.98289 0 2.6986 0H20.0695C20.4239 0 20.7748 0.0698015 21.1022 0.205419C21.4296 0.341037 21.7271 0.539814 21.9777 0.790403C22.2283 1.04099 22.4271 1.33848 22.5627 1.66589C22.6983 1.9933 22.7681 2.34422 22.7681 2.6986V10.2898H16.3616C14.7513 10.2898 13.2069 10.9295 12.0682 12.0682C10.9295 13.2069 10.2898 14.7513 10.2898 16.3616V22.7681H2.6986C1.98289 22.7681 1.29649 22.4838 0.790403 21.9777C0.284317 21.4716 0 20.7852 0 20.0695V2.6986ZM6.88414 9.44242H6.78699C5.27577 9.44242 4.0533 8.21995 4.0533 6.70873V6.67365C4.0533 5.95794 4.33762 5.27153 4.84371 4.76545C5.34979 4.25936 6.03619 3.97505 6.75191 3.97505H6.78969C7.14886 3.96902 7.5057 4.0338 7.83983 4.16568C8.17397 4.29756 8.47886 4.49397 8.73709 4.74368C8.99532 4.99339 9.20184 5.29152 9.34485 5.62104C9.48787 5.95057 9.56458 6.30503 9.5706 6.6642C9.57663 7.02337 9.51185 7.38021 9.37997 7.71435C9.24808 8.04849 9.05168 8.35337 8.80197 8.6116C8.55226 8.86984 8.25413 9.07635 7.9246 9.21937C7.59508 9.36238 7.24061 9.43909 6.88144 9.44512M16.3589 13.6657C15.6432 13.6657 14.9568 13.9501 14.4507 14.4561C13.9447 14.9622 13.6603 15.6486 13.6603 16.3643V33.7353C13.6603 34.451 13.9447 35.1374 14.4507 35.6435C14.9568 36.1495 15.6432 36.4339 16.3589 36.4339H33.7299C34.4456 36.4339 35.132 36.1495 35.6381 35.6435C36.1442 35.1374 36.4285 34.451 36.4285 33.7353V16.3616C36.4285 15.6459 36.1442 14.9595 35.6381 14.4534C35.132 13.9474 34.4456 13.663 33.7299 13.663L16.3589 13.6657ZM28.6889 23.5399C29.4046 23.5399 30.091 23.2556 30.5971 22.7495C31.1032 22.2434 31.3875 21.557 31.3875 20.8413C31.3875 20.1256 31.1032 19.4392 30.5971 18.9331C30.091 18.427 29.4046 18.1427 28.6889 18.1427C27.9732 18.1427 27.2868 18.427 26.7807 18.9331C26.2746 19.4392 25.9903 20.1256 25.9903 20.8413C25.9903 21.557 26.2746 22.2434 26.7807 22.7495C27.2868 23.2556 27.9732 23.5399 28.6889 23.5399ZM24.1012 29.261C24.1012 29.9767 23.8169 30.6631 23.3108 31.1692C22.8047 31.6753 22.1183 31.9596 21.4026 31.9596C20.6869 31.9596 20.0005 31.6753 19.4944 31.1692C18.9883 30.6631 18.704 29.9767 18.704 29.261C18.704 28.5453 18.9883 27.8589 19.4944 27.3528C20.0005 26.8467 20.6869 26.5624 21.4026 26.5624C22.1183 26.5624 22.8047 26.8467 23.3108 27.3528C23.8169 27.8589 24.1012 28.5453 24.1012 29.261Z" fill="white"/>
</svg>
