<svg width="27" height="30" viewBox="0 0 27 30" fill="none" xmlns="http://www.w3.org/2000/svg">
<path d="M13.333 16V1.33334L23.9997 6.66668L13.333 12" stroke="white" stroke-width="2.66667" stroke-linecap="round" stroke-linejoin="round"/>
<path d="M24.7477 12.296C25.4573 14.4829 25.5237 16.8275 24.939 19.051C24.3543 21.2745 23.1433 23.2832 21.4498 24.8383C19.7564 26.3933 17.6519 27.4291 15.3867 27.8224C13.1215 28.2158 10.791 27.9502 8.67248 27.0572C6.55392 26.1642 4.73648 24.6814 3.43639 22.7852C2.13629 20.889 1.40828 18.6593 1.33895 16.3612C1.26963 14.0632 1.86191 11.7936 3.04534 9.82252C4.22877 7.85142 5.95352 6.26176 8.0144 5.24268" stroke="white" stroke-width="2.66667" stroke-linecap="round" stroke-linejoin="round"/>
<path d="M8.00253 11.996C7.3344 12.8854 6.89943 13.9278 6.73725 15.0283C6.57507 16.1288 6.69084 17.2523 7.074 18.2966C7.45716 19.3409 8.09553 20.2727 8.93097 21.0072C9.7664 21.7416 10.7723 22.2554 11.8571 22.5016C12.9419 22.7478 14.071 22.7186 15.1417 22.4168C16.2123 22.115 17.1904 21.55 17.9868 20.7735C18.7832 19.9969 19.3727 19.0334 19.7015 17.9707C20.0303 16.9081 20.0879 15.78 19.8692 14.6894" stroke="white" stroke-width="2.66667" stroke-linecap="round" stroke-linejoin="round"/>
</svg>
