<svg width="42" height="40" viewBox="0 0 42 40" fill="none" xmlns="http://www.w3.org/2000/svg">
<path d="M39.5911 14.3958C39.5442 13.8764 39.3041 13.3935 38.9184 13.0425C38.5326 12.6915 38.0293 12.4979 37.5078 12.5H4.15359C3.07026 12.5 2.17442 13.3333 2.07026 14.3958L0.00775522 37.3125C-0.0964114 38.5417 0.861922 39.5833 2.09109 39.5833H39.5703C40.7994 39.5833 41.7578 38.5417 41.6536 37.3125L39.5911 14.3958ZM20.8411 29.1667C15.0911 29.1667 10.4244 24.5 10.4244 18.75H14.5911C14.5911 22.1875 17.4036 25 20.8411 25C24.2786 25 27.0911 22.1875 27.0911 18.75H31.2578C31.2578 24.5 26.5911 29.1667 20.8411 29.1667ZM22.8203 8.33333C22.2994 3.66667 18.3619 0 13.5494 0C8.73692 0 4.79942 3.66667 4.27859 8.33333H22.8203ZM35.6328 1.875C33.2161 -0.541666 28.9869 -0.541666 26.5703 1.875L25.4661 2.97917C26.2578 4.45833 26.7786 6.10417 26.9869 7.85417L27.0494 8.3125H37.2161C37.4036 7.6875 37.5286 7.0625 37.5286 6.39583C37.5286 4.6875 36.8619 3.0625 35.6536 1.85417L35.6328 1.875Z" fill="white"/>
</svg>
