<svg width="28" height="31" viewBox="0 0 28 31" fill="none" xmlns="http://www.w3.org/2000/svg">
<path d="M4.56475 29.6879C2.69958 29.6879 1.1875 28.1363 1.1875 26.2204V12.2839C1.1875 11.231 1.65458 10.2335 2.45417 9.57644L11.7436 1.94794C12.3371 1.45644 13.0836 1.1875 13.8542 1.1875C14.6248 1.1875 15.3712 1.45644 15.9648 1.94794L25.2526 9.57644C26.0537 10.2335 26.5208 11.231 26.5208 12.2839V26.2204C26.5208 28.1363 25.0088 29.6879 23.1436 29.6879H4.56475Z" stroke="white" stroke-width="2.375" stroke-linecap="round" stroke-linejoin="round"/>
<path d="M9.896 29.6879V20.9796C9.896 20.1397 10.2296 19.3343 10.8235 18.7404C11.4174 18.1466 12.2228 17.8129 13.0627 17.8129H14.646C15.4858 17.8129 16.2913 18.1466 16.8852 18.7404C17.479 19.3343 17.8127 20.1397 17.8127 20.9796V29.6879" stroke="white" stroke-width="2.375" stroke-linecap="round" stroke-linejoin="round"/>
</svg>
