<svg width="29" height="29" viewBox="0 0 29 29" fill="none" xmlns="http://www.w3.org/2000/svg">
<path d="M11.5628 5.811C9.4861 5.94728 7.49266 6.67915 5.82111 7.919C4.14956 9.15885 2.87073 10.8542 2.13771 12.802C1.40469 14.7498 1.24854 16.8676 1.68794 18.9019C2.12734 20.9361 3.14367 22.8007 4.61529 24.2723C6.08691 25.7439 7.95145 26.7602 9.98571 27.1996C12.02 27.639 14.1378 27.4829 16.0856 26.7499C18.0334 26.0168 19.7287 24.738 20.9686 23.0665C22.2084 21.3949 22.9403 19.4015 23.0766 17.3248H11.5628V5.811Z" stroke="black" stroke-width="2.88746" stroke-linecap="round" stroke-linejoin="round"/>
<path d="M15.894 1.47982C16.1337 1.46394 16.3719 1.44373 16.6159 1.44373C19.4877 1.44373 22.2418 2.58453 24.2724 4.61517C26.3031 6.64581 27.4439 9.39994 27.4439 12.2717C27.4439 12.5157 27.4237 12.7539 27.4078 12.9936H15.894V1.47982Z" stroke="black" stroke-width="2.88746" stroke-linecap="round" stroke-linejoin="round"/>
</svg>
