<svg width="41" height="39" viewBox="0 0 41 39" fill="none" xmlns="http://www.w3.org/2000/svg">
<path d="M30.1616 17.8617C30.5539 17.4681 30.75 16.9808 30.75 16.4C30.75 15.8192 30.5532 15.3326 30.1596 14.9404C29.766 14.5482 29.2795 14.3514 28.7 14.35C28.1205 14.3486 27.634 14.5454 27.2404 14.9404C26.8468 15.3354 26.65 15.8219 26.65 16.4C26.65 16.9781 26.8468 17.4653 27.2404 17.8617C27.634 18.258 28.1205 18.4541 28.7 18.45C29.2795 18.4459 29.7667 18.2491 30.1616 17.8596M12.3 14.35H22.55V10.25H12.3V14.35ZM5.125 38.95C3.96333 35.055 2.81875 31.1689 1.69125 27.2916C0.56375 23.4144 0 19.4422 0 15.375C0 12.2317 1.09333 9.56667 3.28 7.38C5.46667 5.19333 8.13167 4.1 11.275 4.1H21.525C22.5158 2.80167 23.7205 1.79375 25.1391 1.07625C26.5577 0.35875 28.0864 0 29.725 0C30.5792 0 31.3055 0.2993 31.9041 0.8979C32.5027 1.4965 32.8014 2.2222 32.8 3.075C32.8 3.28 32.774 3.485 32.7221 3.69C32.6702 3.895 32.6107 4.08292 32.5437 4.25375C32.4071 4.62958 32.2793 5.0143 32.1604 5.4079C32.0415 5.8015 31.9472 6.20262 31.8775 6.61125L36.5413 11.275H41V25.5738L35.2087 27.47L31.775 38.95H20.5V34.85H16.4V38.95H5.125ZM8.2 34.85H12.3V30.75H24.6V34.85H28.7L31.8775 24.2925L36.9 22.6012V15.375H34.85L27.675 8.2C27.675 7.51667 27.718 6.8593 27.8041 6.2279C27.8902 5.5965 28.018 4.95553 28.1875 4.305C27.1967 4.57833 26.3254 5.04847 25.5738 5.7154C24.8221 6.38233 24.2754 7.21053 23.9337 8.2H11.275C9.29333 8.2 7.60208 8.90042 6.20125 10.3012C4.80042 11.7021 4.1 13.3933 4.1 15.375C4.1 18.7233 4.56125 21.9951 5.48375 25.1904C6.40625 28.3857 7.31167 31.6055 8.2 34.85Z" fill="black"/>
</svg>
