<svg width="38" height="45" viewBox="0 0 38 45" fill="none" xmlns="http://www.w3.org/2000/svg">
<path d="M19 25.3333C16.2005 25.3333 13.5156 24.2212 11.5361 22.2417C9.55654 20.2621 8.44444 17.5773 8.44444 14.7778H12.6667C12.6667 16.4575 13.3339 18.0684 14.5217 19.2561C15.7094 20.4439 17.3203 21.1111 19 21.1111C20.6797 21.1111 22.2906 20.4439 23.4783 19.2561C24.6661 18.0684 25.3333 16.4575 25.3333 14.7778H29.5556C29.5556 17.5773 28.4435 20.2621 26.4639 22.2417C24.4844 24.2212 21.7995 25.3333 19 25.3333ZM19 4.22222C20.6797 4.22222 22.2906 4.88948 23.4783 6.07721C24.6661 7.26494 25.3333 8.87585 25.3333 10.5556H12.6667C12.6667 8.87585 13.3339 7.26494 14.5217 6.07721C15.7094 4.88948 17.3203 4.22222 19 4.22222ZM33.7778 10.5556H29.5556C29.5556 9.16938 29.2825 7.79678 28.7521 6.51612C28.2216 5.23546 27.4441 4.07182 26.4639 3.09165C25.4837 2.11148 24.3201 1.33396 23.0394 0.803494C21.7588 0.273028 20.3862 0 19 0C16.2005 0 13.5156 1.1121 11.5361 3.09165C9.55654 5.0712 8.44444 7.75605 8.44444 10.5556H4.22222C1.87889 10.5556 0 12.4344 0 14.7778V40.1111C0 41.2309 0.44484 42.3049 1.23666 43.0967C2.02848 43.8885 3.10242 44.3333 4.22222 44.3333H33.7778C34.8976 44.3333 35.9715 43.8885 36.7633 43.0967C37.5552 42.3049 38 41.2309 38 40.1111V14.7778C38 13.658 37.5552 12.584 36.7633 11.7922C35.9715 11.0004 34.8976 10.5556 33.7778 10.5556Z" fill="white"/>
</svg>
