<svg width="50" height="41" viewBox="0 0 50 41" fill="none" xmlns="http://www.w3.org/2000/svg">
<path fill-rule="evenodd" clip-rule="evenodd" d="M0.765381 20.3065V8.22401C1.01138 8.25151 1.26138 8.26526 1.51538 8.26526C2.46513 8.26534 3.40421 8.06498 4.27123 7.6773C5.13825 7.28962 5.9137 6.72334 6.5469 6.01546C7.18009 5.30759 7.65678 4.47405 7.9458 3.56935C8.23481 2.66464 8.32966 1.70913 8.22413 0.765259H41.3066C41.194 1.77216 41.3094 2.7915 41.6444 3.7477C41.9794 4.7039 42.5254 5.57242 43.2418 6.28884C43.9582 7.00527 44.8267 7.55123 45.7829 7.88623C46.7391 8.22123 47.7585 8.33668 48.7654 8.22401V20.3065C47.7585 20.1938 46.7391 20.3093 45.7829 20.6443C44.8267 20.9793 43.9582 21.5252 43.2418 22.2417C42.5254 22.9581 41.9794 23.8266 41.6444 24.7828C41.3094 25.739 41.194 26.7584 41.3066 27.7653H8.22413C8.25163 27.5193 8.26538 27.2693 8.26538 27.0153C8.26546 26.0655 8.06511 25.1264 7.67743 24.2594C7.28975 23.3924 6.72346 22.6169 6.01558 21.9837C5.30771 21.3505 4.47418 20.8739 3.56947 20.5848C2.66476 20.2958 1.70925 20.201 0.765381 20.3065ZM28.5034 8.01026C27.6382 7.3441 26.6038 6.93359 25.5173 6.82522C24.4308 6.71685 23.3356 6.91497 22.3559 7.39712C21.3762 7.87927 20.5512 8.62619 19.9742 9.55322C19.3973 10.4803 19.0916 11.5504 19.0916 12.6423V15.8883C19.0916 17.4387 19.7075 18.9256 20.8038 20.0219C21.9002 21.1182 23.3871 21.7341 24.9375 21.7341C26.4879 21.7341 27.9748 21.1182 29.0712 20.0219C30.1675 18.9256 30.7834 17.4387 30.7834 15.8883V12.6423C30.7834 10.828 29.9411 9.11726 28.5034 8.01026ZM9.32663 12.1803C9.61503 11.9582 9.95987 11.8214 10.3221 11.7852C10.6843 11.7491 11.0493 11.8152 11.3759 11.9759C11.7025 12.1367 11.9775 12.3857 12.1698 12.6947C12.3621 13.0038 12.464 13.3605 12.4639 13.7245V14.806C12.4639 15.3228 12.2586 15.8184 11.8932 16.1838C11.5278 16.5492 11.0322 16.7545 10.5154 16.7545C9.99861 16.7545 9.503 16.5492 9.13758 16.1838C8.77217 15.8184 8.56688 15.3228 8.56688 14.806V13.7253C8.56688 13.12 8.84738 12.55 9.32663 12.181M40.2041 12.181C39.9157 11.9589 39.5709 11.8221 39.2087 11.786C38.8465 11.7499 38.4814 11.8159 38.1549 11.9767C37.8283 12.1374 37.5533 12.3864 37.361 12.6955C37.1687 13.0045 37.0668 13.3613 37.0669 13.7253V14.8068C37.0669 15.3235 37.2722 15.8191 37.6376 16.1846C38.003 16.55 38.4986 16.7553 39.0154 16.7553C39.5322 16.7553 40.0278 16.55 40.3932 16.1846C40.7586 15.8191 40.9639 15.3235 40.9639 14.8068V13.7253C40.9639 13.12 40.6834 12.55 40.2041 12.181Z" fill="white"/>
<path d="M0.765381 33.7653H48.7654M0.765381 39.7653H48.7654M0.765381 2.26526C0.765381 1.86743 0.923416 1.4859 1.20472 1.2046C1.48603 0.923294 1.86756 0.765259 2.26538 0.765259H47.2654C47.6632 0.765259 48.0447 0.923294 48.326 1.2046C48.6073 1.4859 48.7654 1.86743 48.7654 2.26526V26.2653C48.7654 26.6631 48.6073 27.0446 48.326 27.3259C48.0447 27.6072 47.6632 27.7653 47.2654 27.7653H2.26538C1.86756 27.7653 1.48603 27.6072 1.20472 27.3259C0.923416 27.0446 0.765381 26.6631 0.765381 26.2653V2.26526Z" stroke="white" stroke-width="1.53061" stroke-linecap="round" stroke-linejoin="round"/>
</svg>
