<svg width="47" height="42" viewBox="0 0 47 42" fill="none" xmlns="http://www.w3.org/2000/svg">
<mask id="mask0_62_553" style="mask-type:luminance" maskUnits="userSpaceOnUse" x="0" y="0" width="47" height="42">
<path d="M40.9502 8.40002H17.8502C16.1105 8.40002 14.7002 9.81033 14.7002 11.55V24.15C14.7002 25.8897 16.1105 27.3 17.8502 27.3H40.9502C42.6899 27.3 44.1002 25.8897 44.1002 24.15V11.55C44.1002 9.81033 42.6899 8.40002 40.9502 8.40002Z" fill="white" stroke="white" stroke-width="4.2" stroke-linejoin="round"/>
<path d="M23.1001 14.7001V21.0001M35.7001 14.7001V21.0001" stroke="black" stroke-width="4.2" stroke-linecap="round"/>
<path d="M35.7001 8.39998V2.09998H23.1001V8.39998M44.1001 33.6H10.5001C9.94314 33.6 9.409 33.3787 9.01517 32.9849C8.62135 32.5911 8.4001 32.0569 8.4001 31.5V7.34998C8.4001 6.79302 8.17885 6.25888 7.78502 5.86505C7.39119 5.47123 6.85705 5.24998 6.3001 5.24998H2.1001" stroke="white" stroke-width="4.2" stroke-linecap="round" stroke-linejoin="round"/>
<path d="M17.8502 39.9C17.0148 39.9 16.2135 39.5681 15.6228 38.9774C15.0321 38.3866 14.7002 37.5854 14.7002 36.75V33.6H21.0002V36.75C21.0002 37.5854 20.6683 38.3866 20.0776 38.9774C19.4868 39.5681 18.6856 39.9 17.8502 39.9ZM36.7502 39.9C35.9148 39.9 35.1136 39.5681 34.5228 38.9774C33.9321 38.3866 33.6002 37.5854 33.6002 36.75V33.6H39.9002V36.75C39.9002 37.5854 39.5683 38.3866 38.9776 38.9774C38.3868 39.5681 37.5856 39.9 36.7502 39.9Z" fill="white" stroke="white" stroke-width="4.2" stroke-linecap="round" stroke-linejoin="round"/>
</mask>
<g mask="url(#mask0_62_553)">
<path d="M-2.09985 -4.19995H48.3001V46.2001H-2.09985V-4.19995Z" fill="white"/>
</g>
</svg>
